<mxfile host="app.diagrams.net" modified="2023-12-26T03:42:23.117Z" agent="Mozilla/5.0 (Macintosh; Intel Mac OS X 10_15_7) AppleWebKit/537.36 (KHTML, like Gecko) Chrome/120.0.0.0 Safari/537.36" etag="ftTFHIrpQwaaDBjeFerl" version="22.1.11" type="github">
  <diagram name="第 1 页" id="NLF4BJmTsFg7JG5kzVSg">
    <mxGraphModel dx="2074" dy="1267" grid="1" gridSize="10" guides="1" tooltips="1" connect="1" arrows="1" fold="1" page="1" pageScale="1" pageWidth="827" pageHeight="1169" math="0" shadow="0">
      <root>
        <mxCell id="0" />
        <mxCell id="1" parent="0" />
        <mxCell id="nP2Zpq-_Xat4Pl3XBanM-1" value="" style="rounded=0;whiteSpace=wrap;html=1;fillColor=#ffe6cc;strokeColor=#d79b00;" vertex="1" parent="1">
          <mxGeometry x="80" y="230" width="480" height="280" as="geometry" />
        </mxCell>
        <mxCell id="nP2Zpq-_Xat4Pl3XBanM-2" value="" style="ellipse;whiteSpace=wrap;html=1;aspect=fixed;" vertex="1" parent="1">
          <mxGeometry x="110" y="280" width="60" height="60" as="geometry" />
        </mxCell>
        <mxCell id="nP2Zpq-_Xat4Pl3XBanM-4" value="" style="ellipse;whiteSpace=wrap;html=1;aspect=fixed;fillColor=#d80073;fontColor=#ffffff;strokeColor=#A50040;" vertex="1" parent="1">
          <mxGeometry x="220" y="280" width="60" height="60" as="geometry" />
        </mxCell>
        <mxCell id="nP2Zpq-_Xat4Pl3XBanM-5" value="" style="ellipse;whiteSpace=wrap;html=1;aspect=fixed;fillColor=#b1ddf0;strokeColor=#10739e;" vertex="1" parent="1">
          <mxGeometry x="334" y="390" width="60" height="60" as="geometry" />
        </mxCell>
        <mxCell id="nP2Zpq-_Xat4Pl3XBanM-6" value="" style="ellipse;whiteSpace=wrap;html=1;aspect=fixed;fillColor=#d5e8d4;gradientColor=#97d077;strokeColor=#82b366;" vertex="1" parent="1">
          <mxGeometry x="440" y="280" width="60" height="60" as="geometry" />
        </mxCell>
        <mxCell id="nP2Zpq-_Xat4Pl3XBanM-7" value="" style="ellipse;whiteSpace=wrap;html=1;aspect=fixed;fillColor=#fff2cc;gradientColor=#ffd966;strokeColor=#d6b656;" vertex="1" parent="1">
          <mxGeometry x="110" y="390" width="60" height="60" as="geometry" />
        </mxCell>
        <mxCell id="nP2Zpq-_Xat4Pl3XBanM-8" value="" style="ellipse;whiteSpace=wrap;html=1;aspect=fixed;fillColor=#eeeeee;strokeColor=#36393d;" vertex="1" parent="1">
          <mxGeometry x="220" y="390" width="60" height="60" as="geometry" />
        </mxCell>
        <mxCell id="nP2Zpq-_Xat4Pl3XBanM-9" value="" style="ellipse;whiteSpace=wrap;html=1;aspect=fixed;fillColor=#f8cecc;gradientColor=#ea6b66;strokeColor=#b85450;" vertex="1" parent="1">
          <mxGeometry x="333.5" y="280" width="60" height="60" as="geometry" />
        </mxCell>
        <mxCell id="nP2Zpq-_Xat4Pl3XBanM-10" value="" style="ellipse;whiteSpace=wrap;html=1;aspect=fixed;fillColor=#e6d0de;gradientColor=#d5739d;strokeColor=#996185;" vertex="1" parent="1">
          <mxGeometry x="440" y="390" width="60" height="60" as="geometry" />
        </mxCell>
        <mxCell id="nP2Zpq-_Xat4Pl3XBanM-12" value="TRTC 自带美颜" style="rounded=1;whiteSpace=wrap;html=1;fillColor=#60a917;fontColor=#ffffff;strokeColor=#2D7600;" vertex="1" parent="1">
          <mxGeometry x="90" y="90" width="120" height="60" as="geometry" />
        </mxCell>
        <mxCell id="nP2Zpq-_Xat4Pl3XBanM-13" value="Rande团队背景虚化" style="rounded=1;whiteSpace=wrap;html=1;fillColor=#1ba1e2;strokeColor=#006EAF;fontColor=#ffffff;" vertex="1" parent="1">
          <mxGeometry x="270" y="90" width="120" height="60" as="geometry" />
        </mxCell>
        <mxCell id="nP2Zpq-_Xat4Pl3XBanM-14" value="腾讯特效 Xmagic" style="rounded=1;whiteSpace=wrap;html=1;fillColor=#cdeb8b;strokeColor=#36393d;" vertex="1" parent="1">
          <mxGeometry x="550" y="90" width="120" height="60" as="geometry" />
        </mxCell>
        <mxCell id="nP2Zpq-_Xat4Pl3XBanM-17" value="" style="endArrow=none;html=1;rounded=0;dashed=1;dashPattern=1 2;" edge="1" parent="1">
          <mxGeometry relative="1" as="geometry">
            <mxPoint x="91" y="370" as="sourcePoint" />
            <mxPoint x="91" y="370" as="targetPoint" />
            <Array as="points">
              <mxPoint x="91" y="270" />
              <mxPoint x="431" y="270" />
              <mxPoint x="431" y="370" />
            </Array>
          </mxGeometry>
        </mxCell>
        <mxCell id="nP2Zpq-_Xat4Pl3XBanM-18" value="" style="resizable=0;html=1;whiteSpace=wrap;align=right;verticalAlign=bottom;" connectable="0" vertex="1" parent="nP2Zpq-_Xat4Pl3XBanM-17">
          <mxGeometry x="1" relative="1" as="geometry" />
        </mxCell>
        <mxCell id="nP2Zpq-_Xat4Pl3XBanM-21" value="" style="endArrow=none;html=1;rounded=0;dashed=1;dashPattern=1 2;" edge="1" parent="1">
          <mxGeometry relative="1" as="geometry">
            <mxPoint x="90" y="480" as="sourcePoint" />
            <mxPoint x="90" y="480" as="targetPoint" />
            <Array as="points">
              <mxPoint x="90" y="380" />
              <mxPoint x="540" y="380" />
              <mxPoint x="540" y="480" />
            </Array>
          </mxGeometry>
        </mxCell>
        <mxCell id="nP2Zpq-_Xat4Pl3XBanM-22" value="" style="resizable=0;html=1;whiteSpace=wrap;align=right;verticalAlign=bottom;" connectable="0" vertex="1" parent="nP2Zpq-_Xat4Pl3XBanM-21">
          <mxGeometry x="1" relative="1" as="geometry" />
        </mxCell>
        <mxCell id="nP2Zpq-_Xat4Pl3XBanM-23" value="" style="edgeStyle=segmentEdgeStyle;endArrow=classic;html=1;curved=0;rounded=0;endSize=8;startSize=8;" edge="1" parent="1">
          <mxGeometry width="50" height="50" relative="1" as="geometry">
            <mxPoint x="540" y="420" as="sourcePoint" />
            <mxPoint x="610" y="150" as="targetPoint" />
            <Array as="points">
              <mxPoint x="610" y="420" />
              <mxPoint x="610" y="230" />
            </Array>
          </mxGeometry>
        </mxCell>
        <mxCell id="nP2Zpq-_Xat4Pl3XBanM-24" value="" style="endArrow=block;endFill=1;html=1;edgeStyle=orthogonalEdgeStyle;align=left;verticalAlign=top;rounded=0;exitX=0.5;exitY=0;exitDx=0;exitDy=0;entryX=1;entryY=0.5;entryDx=0;entryDy=0;" edge="1" parent="1" source="nP2Zpq-_Xat4Pl3XBanM-6" target="nP2Zpq-_Xat4Pl3XBanM-13">
          <mxGeometry x="-1" relative="1" as="geometry">
            <mxPoint x="570" y="260" as="sourcePoint" />
            <mxPoint x="730" y="260" as="targetPoint" />
            <Array as="points">
              <mxPoint x="470" y="120" />
            </Array>
          </mxGeometry>
        </mxCell>
        <mxCell id="nP2Zpq-_Xat4Pl3XBanM-26" value="美白" style="text;html=1;strokeColor=none;fillColor=none;align=center;verticalAlign=middle;whiteSpace=wrap;rounded=0;" vertex="1" parent="1">
          <mxGeometry x="110" y="340" width="60" height="30" as="geometry" />
        </mxCell>
        <mxCell id="nP2Zpq-_Xat4Pl3XBanM-27" value="红润" style="text;html=1;strokeColor=none;fillColor=none;align=center;verticalAlign=middle;whiteSpace=wrap;rounded=0;" vertex="1" parent="1">
          <mxGeometry x="220" y="340" width="60" height="30" as="geometry" />
        </mxCell>
        <mxCell id="nP2Zpq-_Xat4Pl3XBanM-28" value="磨皮" style="text;html=1;strokeColor=none;fillColor=none;align=center;verticalAlign=middle;whiteSpace=wrap;rounded=0;" vertex="1" parent="1">
          <mxGeometry x="334" y="340" width="60" height="30" as="geometry" />
        </mxCell>
        <mxCell id="nP2Zpq-_Xat4Pl3XBanM-29" value="背景虚化" style="text;html=1;strokeColor=none;fillColor=none;align=center;verticalAlign=middle;whiteSpace=wrap;rounded=0;" vertex="1" parent="1">
          <mxGeometry x="440" y="340" width="60" height="30" as="geometry" />
        </mxCell>
        <mxCell id="nP2Zpq-_Xat4Pl3XBanM-30" value="美妆" style="text;html=1;strokeColor=none;fillColor=none;align=center;verticalAlign=middle;whiteSpace=wrap;rounded=0;" vertex="1" parent="1">
          <mxGeometry x="110" y="450" width="60" height="30" as="geometry" />
        </mxCell>
        <mxCell id="nP2Zpq-_Xat4Pl3XBanM-31" value="贴图" style="text;html=1;strokeColor=none;fillColor=none;align=center;verticalAlign=middle;whiteSpace=wrap;rounded=0;" vertex="1" parent="1">
          <mxGeometry x="220" y="450" width="60" height="30" as="geometry" />
        </mxCell>
        <mxCell id="nP2Zpq-_Xat4Pl3XBanM-32" value="手势" style="text;html=1;strokeColor=none;fillColor=none;align=center;verticalAlign=middle;whiteSpace=wrap;rounded=0;" vertex="1" parent="1">
          <mxGeometry x="334" y="450" width="60" height="30" as="geometry" />
        </mxCell>
        <mxCell id="nP2Zpq-_Xat4Pl3XBanM-33" value="滤镜" style="text;html=1;strokeColor=none;fillColor=none;align=center;verticalAlign=middle;whiteSpace=wrap;rounded=0;" vertex="1" parent="1">
          <mxGeometry x="440" y="450" width="60" height="30" as="geometry" />
        </mxCell>
        <mxCell id="nP2Zpq-_Xat4Pl3XBanM-34" value="" style="endArrow=block;endFill=1;html=1;edgeStyle=orthogonalEdgeStyle;align=left;verticalAlign=top;rounded=0;entryX=0.5;entryY=1;entryDx=0;entryDy=0;" edge="1" parent="1" target="nP2Zpq-_Xat4Pl3XBanM-12">
          <mxGeometry x="-1" relative="1" as="geometry">
            <mxPoint x="150" y="270" as="sourcePoint" />
            <mxPoint x="730" y="250" as="targetPoint" />
          </mxGeometry>
        </mxCell>
      </root>
    </mxGraphModel>
  </diagram>
</mxfile>
